<svg width="9" height="7" viewBox="0 0 9 7" fill="none" xmlns="http://www.w3.org/2000/svg">
<g clip-path="url(#clip0_104_481)">
<path d="M0.857134 0.157959C0.369132 0.157959 -0.0267944 0.526857 -0.0267944 0.981545C-0.0267944 1.24063 0.103953 1.48428 0.326777 1.64041L4.33392 4.44061C4.54385 4.58645 4.83113 4.58645 5.04106 4.44061L9.04821 1.64041C9.27103 1.48428 9.40178 1.24063 9.40178 0.981545C9.40178 0.526857 9.00585 0.157959 8.51785 0.157959H0.857134ZM-0.0267944 2.07966V5.64854C-0.0267944 6.25421 0.501721 6.74665 1.15178 6.74665H8.22321C8.87326 6.74665 9.40178 6.25421 9.40178 5.64854V2.07966L5.39463 4.87986C4.97477 5.17326 4.40021 5.17326 3.98035 4.87986L-0.0267944 2.07966Z" fill="white"/>
</g>
<defs>
<clipPath id="clip0_104_481">
<rect width="9" height="7" fill="white"/>
</clipPath>
</defs>
</svg>
