<svg width="21" height="17" viewBox="0 0 21 17" fill="none" xmlns="http://www.w3.org/2000/svg">
<g clip-path="url(#clip0_112_201)">
<path d="M2 0.383667C0.861328 0.383667 -0.0625 1.27956 -0.0625 2.38381C-0.0625 3.01302 0.242578 3.60472 0.7625 3.98392L10.1125 10.7844C10.6023 11.1386 11.2727 11.1386 11.7625 10.7844L21.1125 3.98392C21.6324 3.60472 21.9375 3.01302 21.9375 2.38381C21.9375 1.27956 21.0137 0.383667 19.875 0.383667H2ZM-0.0625 5.05066V13.7179C-0.0625 15.1889 1.1707 16.3848 2.6875 16.3848H19.1875C20.7043 16.3848 21.9375 15.1889 21.9375 13.7179V5.05066L12.5875 11.8511C11.6078 12.5637 10.2672 12.5637 9.2875 11.8511L-0.0625 5.05066Z" fill="#808080"/>
</g>
<defs>
<clipPath id="clip0_112_201">
<rect width="21" height="17" fill="white"/>
</clipPath>
</defs>
</svg>
