<svg width="9" height="8" viewBox="0 0 9 8" fill="none" xmlns="http://www.w3.org/2000/svg">
<g clip-path="url(#clip0_106_490)">
<path d="M4.49998 0.5C3.23748 0.5 2.22654 1.075 1.4906 1.75937C0.759351 2.4375 0.270288 3.25 0.0390381 3.80781C-0.0125244 3.93125 -0.0125244 4.06875 0.0390381 4.19219C0.270288 4.75 0.759351 5.5625 1.4906 6.24062C2.22654 6.925 3.23748 7.5 4.49998 7.5C5.76248 7.5 6.77341 6.925 7.50935 6.24062C8.2406 5.56094 8.72966 4.75 8.96247 4.19219C9.01404 4.06875 9.01404 3.93125 8.96247 3.80781C8.72966 3.25 8.2406 2.4375 7.50935 1.75937C6.77341 1.075 5.76248 0.5 4.49998 0.5ZM2.24998 4C2.24998 3.40326 2.48703 2.83097 2.90899 2.40901C3.33094 1.98705 3.90324 1.75 4.49998 1.75C5.09671 1.75 5.66901 1.98705 6.09097 2.40901C6.51292 2.83097 6.74998 3.40326 6.74998 4C6.74998 4.59674 6.51292 5.16903 6.09097 5.59099C5.66901 6.01295 5.09671 6.25 4.49998 6.25C3.90324 6.25 3.33094 6.01295 2.90899 5.59099C2.48703 5.16903 2.24998 4.59674 2.24998 4ZM4.49998 3C4.49998 3.55156 4.05154 4 3.49998 4C3.38904 4 3.28279 3.98125 3.18279 3.94844C3.09685 3.92031 2.99685 3.97344 2.99998 4.06406C3.00466 4.17188 3.02029 4.27969 3.04998 4.3875C3.26404 5.1875 4.08748 5.6625 4.88748 5.44844C5.68748 5.23438 6.16248 4.41094 5.94841 3.61094C5.77498 2.9625 5.20154 2.52656 4.56404 2.5C4.47341 2.49688 4.42029 2.59531 4.44841 2.68281C4.48123 2.78281 4.49998 2.88906 4.49998 3Z" fill="#2AF598"/>
</g>
<defs>
<clipPath id="clip0_106_490">
<rect width="9" height="8" fill="white"/>
</clipPath>
</defs>
</svg>
