<svg width="9" height="8" viewBox="0 0 9 8" fill="none" xmlns="http://www.w3.org/2000/svg">
<g clip-path="url(#clip0_137_490)">
<path d="M0.545521 0.0796533C0.399271 -0.0484717 0.186927 -0.0187842 0.0716147 0.143716C-0.0436978 0.306216 -0.0169791 0.542153 0.129271 0.670278L8.45427 7.92028C8.60052 8.0484 8.81286 8.01872 8.92818 7.85622C9.04349 7.69372 9.01677 7.45778 8.87052 7.32965L7.39114 6.04215C7.94802 5.40778 8.3249 4.69684 8.51474 4.19215C8.56115 4.06872 8.56115 3.93122 8.51474 3.80778C8.30521 3.24997 7.86505 2.43747 7.20693 1.75934C6.54599 1.07497 5.63615 0.499966 4.4999 0.499966C3.54083 0.499966 2.74208 0.910903 2.11911 1.44997L0.545521 0.0796533ZM3.13724 2.3359C3.49583 1.97184 3.97536 1.74997 4.4999 1.74997C5.61786 1.74997 6.5249 2.75778 6.5249 3.99997C6.5249 4.38903 6.4363 4.75465 6.28021 5.0734L5.7374 4.60153C5.85552 4.29997 5.88646 3.95465 5.8049 3.61247C5.6488 2.96403 5.13271 2.52809 4.55896 2.50153C4.4774 2.4984 4.42958 2.59684 4.4549 2.68434C4.48443 2.78434 4.5013 2.89059 4.5013 3.00153C4.5013 3.1609 4.46755 3.3109 4.40849 3.44372L3.13865 2.33747L3.13724 2.3359ZM5.24521 6.09215C5.01458 6.19372 4.76286 6.24997 4.4999 6.24997C3.38193 6.24997 2.4749 5.24215 2.4749 3.99997C2.4749 3.89215 2.48193 3.78747 2.49458 3.68434L1.16849 2.5234C0.847865 2.98747 0.618646 3.44997 0.485052 3.80778C0.438646 3.93122 0.438646 4.06872 0.485052 4.19215C0.694583 4.74997 1.13474 5.56247 1.79286 6.24059C2.4538 6.92497 3.36365 7.49997 4.4999 7.49997C5.17208 7.49997 5.76411 7.2984 6.27458 6.99215L5.24521 6.09215Z" fill="white"/>
</g>
<defs>
<clipPath id="clip0_137_490">
<rect width="9" height="8" fill="white"/>
</clipPath>
</defs>
</svg>
