<svg width="26" height="26" viewBox="0 0 26 26" fill="none" xmlns="http://www.w3.org/2000/svg">
<path d="M14.8288 2.28961L23.7104 11.1712C24.6939 12.1547 24.6939 13.7493 23.7104 14.7328L14.8288 23.6144C13.8453 24.5979 12.2507 24.5979 11.2672 23.6144L2.38556 14.7328C1.40205 13.7493 1.40205 12.1547 2.38556 11.1712L11.2671 2.28962C12.2507 1.3061 13.8453 1.3061 14.8288 2.28961Z" stroke="white" stroke-width="0.719556"/>
<path d="M11.0128 8.51117C12.1368 7.38715 13.9592 7.38715 15.0832 8.51117L17.4888 10.9167C18.6128 12.0408 18.6128 13.8632 17.4888 14.9872L15.0832 17.3928C13.9592 18.5168 12.1368 18.5168 11.0128 17.3928L8.60717 14.9872C7.48316 13.8632 7.48316 12.0408 8.60717 10.9167L11.0128 8.51117Z" fill="white"/>
</svg>
